<svg width="21" height="20" viewBox="0 0 21 20" fill="none" xmlns="http://www.w3.org/2000/svg">
<g id="add">
<mask id="mask0_3_3396" style="mask-type:alpha" maskUnits="userSpaceOnUse" x="0" y="0" width="21" height="20">
<rect id="Bounding box" x="0.5" width="20" height="20" fill="#D9D9D9"/>
</mask>
<g mask="url(#mask0_3_3396)">
<path id="add_2" d="M9.66699 10.8334H5.50033C5.26421 10.8334 5.0663 10.7536 4.90658 10.5938C4.74685 10.4341 4.66699 10.2362 4.66699 10.0001C4.66699 9.76397 4.74685 9.56605 4.90658 9.40633C5.0663 9.24661 5.26421 9.16675 5.50033 9.16675H9.66699V5.00008C9.66699 4.76397 9.74685 4.56605 9.90658 4.40633C10.0663 4.24661 10.2642 4.16675 10.5003 4.16675C10.7364 4.16675 10.9344 4.24661 11.0941 4.40633C11.2538 4.56605 11.3337 4.76397 11.3337 5.00008V9.16675H15.5003C15.7364 9.16675 15.9344 9.24661 16.0941 9.40633C16.2538 9.56605 16.3337 9.76397 16.3337 10.0001C16.3337 10.2362 16.2538 10.4341 16.0941 10.5938C15.9344 10.7536 15.7364 10.8334 15.5003 10.8334H11.3337V15.0001C11.3337 15.2362 11.2538 15.4341 11.0941 15.5938C10.9344 15.7536 10.7364 15.8334 10.5003 15.8334C10.2642 15.8334 10.0663 15.7536 9.90658 15.5938C9.74685 15.4341 9.66699 15.2362 9.66699 15.0001V10.8334Z" fill="white"/>
</g>
</g>
</svg>
