<svg width="40" height="40" viewBox="0 0 40 40" fill="none" xmlns="http://www.w3.org/2000/svg">
<mask id="mask0_689_1654" style="mask-type:alpha" maskUnits="userSpaceOnUse" x="8" y="8" width="24" height="24">
<rect x="8" y="8" width="24" height="24" fill="#D9D9D9"/>
</mask>
<g mask="url(#mask0_689_1654)">
<path d="M20 19.6924C19.0375 19.6924 18.2136 19.3497 17.5283 18.6644C16.8428 17.9789 16.5 17.1549 16.5 16.1924C16.5 15.2299 16.8428 14.406 17.5283 13.7206C18.2136 13.0351 19.0375 12.6924 20 12.6924C20.9625 12.6924 21.7864 13.0351 22.4718 13.7206C23.1573 14.406 23.5 15.2299 23.5 16.1924C23.5 17.1549 23.1573 17.9789 22.4718 18.6644C21.7864 19.3497 20.9625 19.6924 20 19.6924ZM12.5 25.7886V25.0846C12.5 24.595 12.633 24.1415 12.899 23.7241C13.165 23.3068 13.5205 22.986 13.9655 22.7616C14.9538 22.2771 15.9509 21.9137 16.9567 21.6714C17.9626 21.429 18.977 21.3079 20 21.3079C21.023 21.3079 22.0374 21.429 23.0433 21.6714C24.0491 21.9137 25.0462 22.2771 26.0345 22.7616C26.4795 22.986 26.835 23.3068 27.101 23.7241C27.367 24.1415 27.5 24.595 27.5 25.0846V25.7886C27.5 26.2103 27.3523 26.569 27.0568 26.8646C26.7613 27.1601 26.4026 27.3079 25.9808 27.3079H14.0193C13.5974 27.3079 13.2387 27.1601 12.9432 26.8646C12.6477 26.569 12.5 26.2103 12.5 25.7886ZM14 25.8079H26V25.0846C26 24.8821 25.9413 24.6946 25.824 24.5221C25.7067 24.3498 25.5474 24.2091 25.3462 24.1001C24.4846 23.6758 23.6061 23.3543 22.7107 23.1356C21.8152 22.9171 20.9117 22.8079 20 22.8079C19.0883 22.8079 18.1848 22.9171 17.2893 23.1356C16.3939 23.3543 15.5154 23.6758 14.6537 24.1001C14.4526 24.2091 14.2933 24.3498 14.176 24.5221C14.0587 24.6946 14 24.8821 14 25.0846V25.8079ZM20 18.1924C20.55 18.1924 21.0208 17.9965 21.4125 17.6049C21.8042 17.2132 22 16.7424 22 16.1924C22 15.6424 21.8042 15.1715 21.4125 14.7799C21.0208 14.3882 20.55 14.1924 20 14.1924C19.45 14.1924 18.9792 14.3882 18.5875 14.7799C18.1958 15.1715 18 15.6424 18 16.1924C18 16.7424 18.1958 17.2132 18.5875 17.6049C18.9792 17.9965 19.45 18.1924 20 18.1924Z" fill="white"/>
</g>
</svg>
