<svg width="40" height="40" viewBox="0 0 40 40" fill="none" xmlns="http://www.w3.org/2000/svg">
<mask id="mask0_689_1705" style="mask-type:alpha" maskUnits="userSpaceOnUse" x="8" y="8" width="24" height="24">
<rect x="8" y="8" width="24" height="24" fill="#D9D9D9"/>
</mask>
<g mask="url(#mask0_689_1705)">
<path d="M20 19.6924C19.0347 19.6924 18.21 19.3504 17.526 18.6664C16.842 17.9825 16.5 17.1579 16.5 16.1924C16.5 15.227 16.842 14.4024 17.526 13.7184C18.21 13.0344 19.0347 12.6924 20 12.6924C20.9653 12.6924 21.79 13.0344 22.474 13.7184C23.158 14.4024 23.5 15.227 23.5 16.1924C23.5 17.1579 23.158 17.9825 22.474 18.6664C21.79 19.3504 20.9653 19.6924 20 19.6924ZM12.5 25.7886V25.0846C12.5 24.595 12.633 24.1415 12.899 23.7241C13.165 23.3068 13.5205 22.986 13.9655 22.7616C14.9538 22.2771 15.9509 21.9137 16.9567 21.6714C17.9626 21.429 18.977 21.3079 20 21.3079C21.023 21.3079 22.0374 21.429 23.0433 21.6714C24.0491 21.9137 25.0462 22.2771 26.0345 22.7616C26.4795 22.986 26.835 23.3068 27.101 23.7241C27.367 24.1415 27.5 24.595 27.5 25.0846V25.7886C27.5 26.2103 27.3523 26.569 27.0568 26.8646C26.7613 27.1601 26.4026 27.3079 25.9808 27.3079H14.0193C13.5974 27.3079 13.2387 27.1601 12.9432 26.8646C12.6477 26.569 12.5 26.2103 12.5 25.7886Z" fill="white"/>
</g>
</svg>
