<svg width="40" height="40" viewBox="0 0 40 40" fill="none" xmlns="http://www.w3.org/2000/svg">
<mask id="mask0_689_1621" style="mask-type:alpha" maskUnits="userSpaceOnUse" x="8" y="8" width="24" height="24">
<rect x="8" y="8" width="24" height="24" fill="#D9D9D9"/>
</mask>
<g mask="url(#mask0_689_1621)">
<path d="M14 26.9999H17.3463V21.9614C17.3463 21.7054 17.4328 21.4907 17.606 21.3174C17.7793 21.1442 17.994 21.0576 18.25 21.0576H21.75C22.006 21.0576 22.2207 21.1442 22.394 21.3174C22.5672 21.4907 22.6538 21.7054 22.6538 21.9614V26.9999H26V18.1536C26 18.1025 25.9888 18.056 25.9663 18.0144C25.9439 17.9727 25.9135 17.9358 25.875 17.9036L20.1828 13.6249C20.1314 13.58 20.0705 13.5576 20 13.5576C19.9295 13.5576 19.8686 13.58 19.8173 13.6249L14.125 17.9036C14.0865 17.9358 14.0561 17.9727 14.0338 18.0144C14.0113 18.056 14 18.1025 14 18.1536V26.9999ZM12.5 26.9999V18.1536C12.5 17.8675 12.564 17.5964 12.692 17.3404C12.8202 17.0842 12.9972 16.8733 13.223 16.7076L18.9155 12.4191C19.2313 12.1781 19.5923 12.0576 19.9985 12.0576C20.4047 12.0576 20.7667 12.1781 21.0845 12.4191L26.777 16.7076C27.0028 16.8733 27.1798 17.0842 27.308 17.3404C27.436 17.5964 27.5 17.8675 27.5 18.1536V26.9999C27.5 27.4089 27.3523 27.7611 27.0568 28.0566C26.7613 28.3521 26.409 28.4999 26 28.4999H22.0577C21.8016 28.4999 21.5869 28.4132 21.4137 28.2399C21.2404 28.0667 21.1538 27.852 21.1538 27.5959V22.5576H18.8463V27.5959C18.8463 27.852 18.7596 28.0667 18.5863 28.2399C18.4131 28.4132 18.1984 28.4999 17.9423 28.4999H14C13.591 28.4999 13.2387 28.3521 12.9432 28.0566C12.6477 27.7611 12.5 27.4089 12.5 26.9999Z" fill="white"/>
</g>
</svg>
