<svg width="40" height="40" viewBox="0 0 40 40" fill="none" xmlns="http://www.w3.org/2000/svg">
<mask id="mask0_689_1672" style="mask-type:alpha" maskUnits="userSpaceOnUse" x="8" y="8" width="24" height="24">
<rect x="8" y="8" width="24" height="24" fill="#D9D9D9"/>
</mask>
<g mask="url(#mask0_689_1672)">
<path d="M12.5 26.9999V18.1536C12.5 17.8675 12.564 17.5964 12.692 17.3404C12.8202 17.0842 12.9972 16.8733 13.223 16.7076L18.9155 12.4191C19.2313 12.1781 19.5923 12.0576 19.9985 12.0576C20.4047 12.0576 20.7667 12.1781 21.0845 12.4191L26.777 16.7076C27.0028 16.8733 27.1798 17.0842 27.308 17.3404C27.436 17.5964 27.5 17.8675 27.5 18.1536V26.9999C27.5 27.4089 27.3523 27.7611 27.0568 28.0566C26.7613 28.3521 26.409 28.4999 26 28.4999H22.8077C22.5516 28.4999 22.3369 28.4132 22.1637 28.2399C21.9904 28.0667 21.9038 27.852 21.9038 27.5959V22.7114C21.9038 22.4554 21.8172 22.2407 21.644 22.0674C21.4708 21.8942 21.2562 21.8076 21 21.8076H19C18.7438 21.8076 18.5292 21.8942 18.356 22.0674C18.1828 22.2407 18.0963 22.4554 18.0963 22.7114V27.5959C18.0963 27.852 18.0096 28.0667 17.8363 28.2399C17.6631 28.4132 17.4484 28.4999 17.1923 28.4999H14C13.591 28.4999 13.2387 28.3521 12.9432 28.0566C12.6477 27.7611 12.5 27.4089 12.5 26.9999Z" fill="white"/>
</g>
</svg>
