<svg width="40" height="40" viewBox="0 0 40 40" fill="none" xmlns="http://www.w3.org/2000/svg">
<mask id="mask0_689_1658" style="mask-type:alpha" maskUnits="userSpaceOnUse" x="8" y="8" width="24" height="24">
<rect x="8" y="8" width="24" height="24" fill="#D9D9D9"/>
</mask>
<g mask="url(#mask0_689_1658)">
<path d="M19.25 27.5691V20.4306L13 16.8114V23.7769C13 23.828 13.0128 23.8761 13.0385 23.9211C13.0642 23.9659 13.1026 24.0044 13.1537 24.0364L19.25 27.5691ZM20.75 27.5691L26.8462 24.0364C26.8974 24.0044 26.9358 23.9659 26.9615 23.9211C26.9872 23.8761 27 23.828 27 23.7769V16.8114L20.75 20.4306V27.5691ZM19.0963 29.2056L12.404 25.3536C12.1193 25.1896 11.8975 24.9704 11.7385 24.6961C11.5795 24.4216 11.5 24.1203 11.5 23.7921V16.2076C11.5 15.8794 11.5795 15.5781 11.7385 15.3036C11.8975 15.0293 12.1193 14.8101 12.404 14.6461L19.0963 10.7941C19.3808 10.6299 19.682 10.5479 20 10.5479C20.318 10.5479 20.6193 10.6299 20.9038 10.7941L27.596 14.6461C27.8807 14.8101 28.1025 15.0293 28.2615 15.3036C28.4205 15.5781 28.5 15.8794 28.5 16.2076V23.7921C28.5 24.1203 28.4205 24.4216 28.2615 24.6961C28.1025 24.9704 27.8807 25.1896 27.596 25.3536L20.9038 29.2056C20.6193 29.3698 20.318 29.4519 20 29.4519C19.682 29.4519 19.3808 29.3698 19.0963 29.2056ZM23.8558 16.8999L26.175 15.5691L20.1538 12.0864C20.1026 12.0544 20.0513 12.0384 20 12.0384C19.9487 12.0384 19.8974 12.0544 19.8463 12.0864L17.675 13.3364L23.8558 16.8999ZM20 19.1384L22.325 17.7921L16.15 14.2229L13.825 15.5691L20 19.1384Z" fill="white"/>
</g>
</svg>
