<svg width="40" height="40" viewBox="0 0 40 40" fill="none" xmlns="http://www.w3.org/2000/svg">
<mask id="mask0_689_1709" style="mask-type:alpha" maskUnits="userSpaceOnUse" x="8" y="8" width="24" height="24">
<rect x="8" y="8" width="24" height="24" fill="#D9D9D9"/>
</mask>
<g mask="url(#mask0_689_1709)">
<path d="M19.25 29.2921V20.4306L11.5 15.9499V23.7921C11.5 24.1203 11.5795 24.4216 11.7385 24.6961C11.8975 24.9704 12.1193 25.1896 12.404 25.3536L19.25 29.2921ZM20.75 29.2921L27.596 25.3536C27.8807 25.1896 28.1025 24.9704 28.2615 24.6961C28.4205 24.4216 28.5 24.1203 28.5 23.7921V15.9499L20.75 20.4306V29.2921ZM24.571 16.4941L27.6845 14.6921L20.9038 10.7941C20.6193 10.6299 20.318 10.5479 20 10.5479C19.682 10.5479 19.3808 10.6299 19.0963 10.7941L16.9 12.0539L24.571 16.4941ZM20 19.1384L23.0712 17.3711L15.3963 12.9249L12.3098 14.6979L20 19.1384Z" fill="white"/>
</g>
</svg>
