<svg width="21" height="20" viewBox="0 0 21 20" fill="none" xmlns="http://www.w3.org/2000/svg">
<g id="download">
<mask id="mask0_3_3391" style="mask-type:alpha" maskUnits="userSpaceOnUse" x="0" y="0" width="21" height="20">
<rect id="Bounding box" x="0.5" width="20" height="20" fill="#D9D9D9"/>
</mask>
<g mask="url(#mask0_3_3391)">
<path id="download_2" d="M10.4997 12.9791C10.3886 12.9791 10.2844 12.9617 10.1872 12.927C10.09 12.8923 9.99967 12.8333 9.91634 12.7499L6.91634 9.74992C6.74967 9.58325 6.66981 9.38881 6.67676 9.16658C6.6837 8.94436 6.76356 8.74992 6.91634 8.58325C7.08301 8.41659 7.28092 8.32978 7.51009 8.32284C7.73926 8.31589 7.93717 8.39575 8.10384 8.56242L9.66634 10.1249V4.16659C9.66634 3.93047 9.7462 3.73256 9.90592 3.57284C10.0656 3.41311 10.2636 3.33325 10.4997 3.33325C10.7358 3.33325 10.9337 3.41311 11.0934 3.57284C11.2531 3.73256 11.333 3.93047 11.333 4.16659V10.1249L12.8955 8.56242C13.0622 8.39575 13.2601 8.31589 13.4893 8.32284C13.7184 8.32978 13.9163 8.41659 14.083 8.58325C14.2358 8.74992 14.3156 8.94436 14.3226 9.16658C14.3295 9.38881 14.2497 9.58325 14.083 9.74992L11.083 12.7499C10.9997 12.8333 10.9094 12.8923 10.8122 12.927C10.715 12.9617 10.6108 12.9791 10.4997 12.9791ZM5.49967 16.6666C5.04134 16.6666 4.64898 16.5034 4.32259 16.177C3.9962 15.8506 3.83301 15.4583 3.83301 14.9999V13.3333C3.83301 13.0971 3.91287 12.8992 4.07259 12.7395C4.23231 12.5798 4.43023 12.4999 4.66634 12.4999C4.90245 12.4999 5.10037 12.5798 5.26009 12.7395C5.41981 12.8992 5.49967 13.0971 5.49967 13.3333V14.9999H15.4997V13.3333C15.4997 13.0971 15.5795 12.8992 15.7393 12.7395C15.899 12.5798 16.0969 12.4999 16.333 12.4999C16.5691 12.4999 16.767 12.5798 16.9268 12.7395C17.0865 12.8992 17.1663 13.0971 17.1663 13.3333V14.9999C17.1663 15.4583 17.0031 15.8506 16.6768 16.177C16.3504 16.5034 15.958 16.6666 15.4997 16.6666H5.49967Z" fill="white"/>
</g>
</g>
</svg>
