<svg width="40" height="40" viewBox="0 0 40 40" fill="none" xmlns="http://www.w3.org/2000/svg">
<mask id="mask0_689_1638" style="mask-type:alpha" maskUnits="userSpaceOnUse" x="8" y="8" width="24" height="24">
<rect x="8" y="8" width="24" height="24" fill="#D9D9D9"/>
</mask>
<g mask="url(#mask0_689_1638)">
<path d="M22.2462 25.202C22.3911 25.0673 22.4702 24.9038 22.4837 24.7115C22.4971 24.5192 22.4313 24.3506 22.2865 24.2057L19.3193 21.05L19.3442 20.975H19.5942C20.5327 20.975 21.3042 20.7128 21.9087 20.1885C22.5131 19.6642 22.8692 19.0097 22.977 18.225H23.4693C23.6108 18.225 23.7276 18.1759 23.8197 18.0777C23.9117 17.9796 23.9578 17.8603 23.9578 17.72C23.9578 17.5798 23.9117 17.4636 23.8197 17.3712C23.7276 17.2789 23.6108 17.2327 23.4693 17.2327H22.952C22.902 16.9314 22.8032 16.6522 22.6557 16.3952C22.5082 16.1381 22.3237 15.9012 22.102 15.6845H23.4693C23.6108 15.6845 23.7276 15.6354 23.8197 15.5373C23.9117 15.4391 23.9578 15.3199 23.9578 15.1797C23.9578 15.0394 23.9117 14.9231 23.8197 14.8307C23.7276 14.7384 23.6108 14.6923 23.4693 14.6923H16.623C16.4628 14.6923 16.326 14.7492 16.2125 14.863C16.099 14.9767 16.0423 15.1138 16.0423 15.2745C16.0423 15.4352 16.099 15.5693 16.2125 15.677C16.326 15.7847 16.4628 15.8385 16.623 15.8385H19.5865C20.1288 15.8385 20.5743 15.9661 20.923 16.2212C21.2718 16.4762 21.4962 16.8134 21.5962 17.2327H16.5308C16.3893 17.2327 16.2724 17.2818 16.1802 17.38C16.0882 17.4782 16.0423 17.5974 16.0423 17.7378C16.0423 17.8779 16.0882 17.9942 16.1802 18.0865C16.2724 18.1788 16.3893 18.225 16.5308 18.225H21.6212C21.5341 18.6802 21.3119 19.051 20.9548 19.3375C20.5978 19.624 20.1262 19.7673 19.5402 19.7673H18.3405C18.142 19.7673 17.9703 19.8141 17.8253 19.9078C17.6803 20.0013 17.5725 20.1301 17.502 20.2942C17.4315 20.4584 17.4097 20.6251 17.4365 20.7942C17.4635 20.9634 17.5456 21.1249 17.6828 21.2788L21.2598 25.177C21.3943 25.3218 21.5561 25.3958 21.7452 25.399C21.9342 25.4022 22.1012 25.3365 22.2462 25.202ZM20.0017 29.5C18.6877 29.5 17.4527 29.2507 16.2965 28.752C15.1403 28.2533 14.1347 27.5766 13.2795 26.7218C12.4243 25.8669 11.7472 24.8617 11.2482 23.706C10.7494 22.5503 10.5 21.3156 10.5 20.0017C10.5 18.6877 10.7493 17.4527 11.248 16.2965C11.7467 15.1403 12.4234 14.1347 13.2783 13.2795C14.1331 12.4243 15.1383 11.7472 16.294 11.2482C17.4497 10.7494 18.6844 10.5 19.9983 10.5C21.3123 10.5 22.5473 10.7493 23.7035 11.248C24.8597 11.7467 25.8653 12.4234 26.7205 13.2783C27.5757 14.1331 28.2528 15.1383 28.7518 16.294C29.2506 17.4497 29.5 18.6844 29.5 19.9983C29.5 21.3123 29.2507 22.5473 28.752 23.7035C28.2533 24.8597 27.5766 25.8653 26.7218 26.7205C25.8669 27.5757 24.8617 28.2528 23.706 28.7518C22.5503 29.2506 21.3156 29.5 20.0017 29.5ZM20 28C22.2333 28 24.125 27.225 25.675 25.675C27.225 24.125 28 22.2333 28 20C28 17.7667 27.225 15.875 25.675 14.325C24.125 12.775 22.2333 12 20 12C17.7667 12 15.875 12.775 14.325 14.325C12.775 15.875 12 17.7667 12 20C12 22.2333 12.775 24.125 14.325 25.675C15.875 27.225 17.7667 28 20 28Z" fill="white"/>
</g>
</svg>
