<svg width="20" height="20" viewBox="0 0 20 20" fill="none" xmlns="http://www.w3.org/2000/svg">
<g id="instant_mix">
<mask id="mask0_3_3386" style="mask-type:alpha" maskUnits="userSpaceOnUse" x="0" y="0" width="20" height="20">
<rect id="Bounding box" width="20" height="20" fill="#D9D9D9"/>
</mask>
<g mask="url(#mask0_3_3386)">
<path id="instant_mix_2" d="M5 16.6666C4.76389 16.6666 4.56597 16.5867 4.40625 16.427C4.24653 16.2673 4.16667 16.0694 4.16667 15.8333V10.8333H3.33333C3.09722 10.8333 2.89931 10.7534 2.73958 10.5937C2.57986 10.4339 2.5 10.236 2.5 9.99992C2.5 9.76381 2.57986 9.56589 2.73958 9.40617C2.89931 9.24645 3.09722 9.16658 3.33333 9.16658H6.66667C6.90278 9.16658 7.10069 9.24645 7.26042 9.40617C7.42014 9.56589 7.5 9.76381 7.5 9.99992C7.5 10.236 7.42014 10.4339 7.26042 10.5937C7.10069 10.7534 6.90278 10.8333 6.66667 10.8333H5.83333V15.8333C5.83333 16.0694 5.75347 16.2673 5.59375 16.427C5.43403 16.5867 5.23611 16.6666 5 16.6666ZM5 7.49992C4.76389 7.49992 4.56597 7.42006 4.40625 7.26034C4.24653 7.10061 4.16667 6.9027 4.16667 6.66659V4.16659C4.16667 3.93047 4.24653 3.73256 4.40625 3.57284C4.56597 3.41311 4.76389 3.33325 5 3.33325C5.23611 3.33325 5.43403 3.41311 5.59375 3.57284C5.75347 3.73256 5.83333 3.93047 5.83333 4.16659V6.66659C5.83333 6.9027 5.75347 7.10061 5.59375 7.26034C5.43403 7.42006 5.23611 7.49992 5 7.49992ZM8.33333 7.49992C8.09722 7.49992 7.89931 7.42006 7.73958 7.26034C7.57986 7.10061 7.5 6.9027 7.5 6.66659C7.5 6.43047 7.57986 6.23256 7.73958 6.07284C7.89931 5.91311 8.09722 5.83325 8.33333 5.83325H9.16667V4.16659C9.16667 3.93047 9.24653 3.73256 9.40625 3.57284C9.56597 3.41311 9.76389 3.33325 10 3.33325C10.2361 3.33325 10.434 3.41311 10.5938 3.57284C10.7535 3.73256 10.8333 3.93047 10.8333 4.16659V5.83325H11.6667C11.9028 5.83325 12.1007 5.91311 12.2604 6.07284C12.4201 6.23256 12.5 6.43047 12.5 6.66659C12.5 6.9027 12.4201 7.10061 12.2604 7.26034C12.1007 7.42006 11.9028 7.49992 11.6667 7.49992H8.33333ZM10 16.6666C9.76389 16.6666 9.56597 16.5867 9.40625 16.427C9.24653 16.2673 9.16667 16.0694 9.16667 15.8333V9.99992C9.16667 9.76381 9.24653 9.56589 9.40625 9.40617C9.56597 9.24645 9.76389 9.16658 10 9.16658C10.2361 9.16658 10.434 9.24645 10.5938 9.40617C10.7535 9.56589 10.8333 9.76381 10.8333 9.99992V15.8333C10.8333 16.0694 10.7535 16.2673 10.5938 16.427C10.434 16.5867 10.2361 16.6666 10 16.6666ZM15 16.6666C14.7639 16.6666 14.566 16.5867 14.4062 16.427C14.2465 16.2673 14.1667 16.0694 14.1667 15.8333V14.1666H13.3333C13.0972 14.1666 12.8993 14.0867 12.7396 13.927C12.5799 13.7673 12.5 13.5694 12.5 13.3333C12.5 13.0971 12.5799 12.8992 12.7396 12.7395C12.8993 12.5798 13.0972 12.4999 13.3333 12.4999H16.6667C16.9028 12.4999 17.1007 12.5798 17.2604 12.7395C17.4201 12.8992 17.5 13.0971 17.5 13.3333C17.5 13.5694 17.4201 13.7673 17.2604 13.927C17.1007 14.0867 16.9028 14.1666 16.6667 14.1666H15.8333V15.8333C15.8333 16.0694 15.7535 16.2673 15.5938 16.427C15.434 16.5867 15.2361 16.6666 15 16.6666ZM15 10.8333C14.7639 10.8333 14.566 10.7534 14.4062 10.5937C14.2465 10.4339 14.1667 10.236 14.1667 9.99992V4.16659C14.1667 3.93047 14.2465 3.73256 14.4062 3.57284C14.566 3.41311 14.7639 3.33325 15 3.33325C15.2361 3.33325 15.434 3.41311 15.5938 3.57284C15.7535 3.73256 15.8333 3.93047 15.8333 4.16659V9.99992C15.8333 10.236 15.7535 10.4339 15.5938 10.5937C15.434 10.7534 15.2361 10.8333 15 10.8333Z" fill="white"/>
</g>
</g>
</svg>
