<svg width="40" height="40" viewBox="0 0 40 40" fill="none" xmlns="http://www.w3.org/2000/svg">
<mask id="mask0_689_1629" style="mask-type:alpha" maskUnits="userSpaceOnUse" x="8" y="8" width="24" height="24">
<rect x="8" y="8" width="24" height="24" fill="#D9D9D9"/>
</mask>
<g mask="url(#mask0_689_1629)">
<path d="M20 27.5865C19.7423 27.5865 19.493 27.532 19.252 27.423C19.011 27.314 18.8001 27.1525 18.6193 26.9385L11.0463 17.8652C10.9091 17.7012 10.8062 17.5222 10.7375 17.328C10.669 17.1337 10.6348 16.9295 10.6348 16.7155C10.6348 16.5782 10.6488 16.44 10.677 16.301C10.7052 16.1618 10.7545 16.0288 10.825 15.902L12.652 12.2443C12.816 11.9429 13.0394 11.7019 13.3223 11.5212C13.6049 11.3404 13.9187 11.25 14.2635 11.25H25.7365C26.0813 11.25 26.3951 11.3404 26.6778 11.5212C26.9606 11.7019 27.184 11.9429 27.348 12.2443L29.175 15.902C29.2455 16.0288 29.2948 16.1618 29.323 16.301C29.3512 16.44 29.3653 16.5782 29.3653 16.7155C29.3653 16.9295 29.331 17.1337 29.2625 17.328C29.1938 17.5222 29.0909 17.7012 28.9538 17.8652L21.3808 26.9385C21.1999 27.1525 20.989 27.314 20.748 27.423C20.507 27.532 20.2577 27.5865 20 27.5865ZM17.221 16.25H22.779L21.0288 12.75H18.9713L17.221 16.25ZM19.25 25.3672V17.75H12.921L19.25 25.3672ZM20.75 25.3672L27.079 17.75H20.75V25.3672ZM24.4463 16.25H27.654L25.9905 12.923C25.9648 12.8718 25.9263 12.8302 25.875 12.798C25.8237 12.766 25.7692 12.75 25.7115 12.75H22.696L24.4463 16.25ZM12.346 16.25H15.5538L17.304 12.75H14.2885C14.2308 12.75 14.1763 12.766 14.125 12.798C14.0737 12.8302 14.0352 12.8718 14.0095 12.923L12.346 16.25Z" fill="white"/>
</g>
</svg>
