<svg width="40" height="40" viewBox="0 0 40 40" fill="none" xmlns="http://www.w3.org/2000/svg">
<mask id="mask0_689_1680" style="mask-type:alpha" maskUnits="userSpaceOnUse" x="8" y="8" width="24" height="24">
<rect x="8" y="8" width="24" height="24" fill="#D9D9D9"/>
</mask>
<g mask="url(#mask0_689_1680)">
<path d="M17.1136 16.4038H22.8866L20.2944 11.25H19.7059L17.1136 16.4038ZM19.4039 27.8885V17.5962H10.8271L19.4039 27.8885ZM20.5964 27.8885L29.1731 17.5962H20.5964V27.8885ZM24.2001 16.4038H29.4231L27.3481 12.2443C27.1818 11.9429 26.9586 11.7019 26.6786 11.5212C26.3986 11.3404 26.0846 11.25 25.7366 11.25H21.6386L24.2001 16.4038ZM10.5771 16.4038H15.8001L18.3616 11.25H14.2636C13.9156 11.25 13.6016 11.3404 13.3216 11.5212C13.0416 11.7019 12.8185 11.9429 12.6521 12.2443L10.5771 16.4038Z" fill="white"/>
</g>
</svg>
