<svg width="22" height="22" viewBox="0 0 22 22" fill="none" xmlns="http://www.w3.org/2000/svg">
<g id="wysiwyg">
<mask id="mask0_3_2813" style="mask-type:alpha" maskUnits="userSpaceOnUse" x="0" y="0" width="22" height="22">
<rect id="Bounding box" width="22" height="22" fill="#D9D9D9"/>
</mask>
<g mask="url(#mask0_3_2813)">
<path id="wysiwyg_2" d="M4.58333 19.25C4.07917 19.25 3.64757 19.0705 3.28854 18.7115C2.92951 18.3524 2.75 17.9208 2.75 17.4167V4.58333C2.75 4.07917 2.92951 3.64757 3.28854 3.28854C3.64757 2.92951 4.07917 2.75 4.58333 2.75H17.4167C17.9208 2.75 18.3524 2.92951 18.7115 3.28854C19.0705 3.64757 19.25 4.07917 19.25 4.58333V17.4167C19.25 17.9208 19.0705 18.3524 18.7115 18.7115C18.3524 19.0705 17.9208 19.25 17.4167 19.25H4.58333ZM4.58333 17.4167H17.4167V6.41667H4.58333V17.4167ZM6.41667 11V9.16667H15.5833V11H6.41667ZM6.41667 14.6667V12.8333H11.9167V14.6667H6.41667Z" fill="#28328B"/>
</g>
</g>
</svg>
