<svg width="40" height="40" viewBox="0 0 40 40" fill="none" xmlns="http://www.w3.org/2000/svg">
<mask id="mask0_689_1662" style="mask-type:alpha" maskUnits="userSpaceOnUse" x="8" y="8" width="24" height="24">
<rect x="8" y="8" width="24" height="24" fill="#D9D9D9"/>
</mask>
<g mask="url(#mask0_689_1662)">
<path d="M23.5 25.4614L28.6423 20.3191C28.7808 20.1806 28.9548 20.1098 29.1645 20.1066C29.374 20.1035 29.5512 20.1743 29.6962 20.3191C29.8411 20.464 29.9135 20.6396 29.9135 20.8461C29.9135 21.0525 29.8411 21.228 29.6962 21.3729L24.1328 26.9364C23.9519 27.1172 23.741 27.2076 23.5 27.2076C23.259 27.2076 23.0481 27.1172 22.8673 26.9364L20.123 24.1921C19.9847 24.0536 19.9138 23.8796 19.9105 23.6701C19.9073 23.4605 19.9782 23.2832 20.123 23.1384C20.268 22.9935 20.4437 22.9211 20.65 22.9211C20.8563 22.9211 21.032 22.9935 21.177 23.1384L23.5 25.4614ZM13.3077 28.4999C12.8106 28.4999 12.385 28.3229 12.031 27.9689C11.677 27.6149 11.5 27.1893 11.5 26.6921V13.3076C11.5 12.8105 11.677 12.3849 12.031 12.0309C12.385 11.6769 12.8106 11.4999 13.3077 11.4999H17.7135C17.852 11.0127 18.135 10.6089 18.5625 10.2884C18.99 9.96787 19.4692 9.80762 20 9.80762C20.5513 9.80762 21.0382 9.96787 21.4605 10.2884C21.883 10.6089 22.1635 11.0127 22.302 11.4999H26.6923C27.1894 11.4999 27.615 11.6769 27.969 12.0309C28.323 12.3849 28.5 12.8105 28.5 13.3076V17.2499C28.5 17.4624 28.4281 17.6405 28.2843 17.7844C28.1404 17.928 27.9623 17.9999 27.7498 17.9999C27.5371 17.9999 27.359 17.928 27.2155 17.7844C27.0718 17.6405 27 17.4624 27 17.2499V13.3076C27 13.2306 26.9679 13.1601 26.9038 13.0961C26.8398 13.032 26.7693 12.9999 26.6923 12.9999H24.5V14.7114C24.5 14.9675 24.4138 15.1822 24.2413 15.3554C24.0688 15.5285 23.855 15.6151 23.6 15.6151H16.3997C16.1447 15.6151 15.9311 15.5285 15.7588 15.3554C15.5863 15.1822 15.5 14.9675 15.5 14.7114V12.9999H13.3077C13.2307 12.9999 13.1603 13.032 13.0963 13.0961C13.0321 13.1601 13 13.2306 13 13.3076V26.6921C13 26.7691 13.0321 26.8396 13.0963 26.9036C13.1603 26.9678 13.2307 26.9999 13.3077 26.9999H18.25C18.4625 26.9999 18.6407 27.0718 18.7845 27.2156C18.9282 27.3595 19 27.5376 19 27.7501C19 27.9628 18.9282 28.1409 18.7845 28.2844C18.6407 28.428 18.4625 28.4999 18.25 28.4999H13.3077ZM20.0017 13.1154C20.2582 13.1154 20.4728 13.0285 20.6453 12.8549C20.8176 12.6814 20.9038 12.4663 20.9038 12.2096C20.9038 11.9531 20.817 11.7386 20.6435 11.5661C20.47 11.3938 20.2549 11.3076 19.9983 11.3076C19.7418 11.3076 19.5273 11.3944 19.3548 11.5679C19.1824 11.7415 19.0963 11.9566 19.0963 12.2131C19.0963 12.4696 19.183 12.6841 19.3565 12.8566C19.53 13.0291 19.7451 13.1154 20.0017 13.1154Z" fill="white"/>
</g>
</svg>
