<svg width="22" height="22" viewBox="0 0 22 22" fill="none" xmlns="http://www.w3.org/2000/svg">
<g id="print">
<mask id="mask0_3_2828" style="mask-type:alpha" maskUnits="userSpaceOnUse" x="0" y="0" width="22" height="22">
<rect id="Bounding box" width="22" height="22" fill="#D9D9D9"/>
</mask>
<g mask="url(#mask0_3_2828)">
<path id="print_2" d="M14.6673 7.33333V4.58333H7.33398V7.33333H5.50065V2.75H16.5007V7.33333H14.6673ZM16.5007 11.4583C16.7604 11.4583 16.9781 11.3705 17.1538 11.1948C17.3295 11.0191 17.4173 10.8014 17.4173 10.5417C17.4173 10.2819 17.3295 10.0642 17.1538 9.88854C16.9781 9.71285 16.7604 9.625 16.5007 9.625C16.2409 9.625 16.0232 9.71285 15.8475 9.88854C15.6718 10.0642 15.584 10.2819 15.584 10.5417C15.584 10.8014 15.6718 11.0191 15.8475 11.1948C16.0232 11.3705 16.2409 11.4583 16.5007 11.4583ZM14.6673 17.4167V13.75H7.33398V17.4167H14.6673ZM16.5007 19.25H5.50065V15.5833H1.83398V10.0833C1.83398 9.30417 2.10135 8.65104 2.63607 8.12396C3.17079 7.59688 3.8201 7.33333 4.58398 7.33333H17.4173C18.1965 7.33333 18.8496 7.59688 19.3767 8.12396C19.9038 8.65104 20.1673 9.30417 20.1673 10.0833V15.5833H16.5007V19.25ZM18.334 13.75V10.0833C18.334 9.82361 18.2461 9.6059 18.0704 9.43021C17.8947 9.25451 17.677 9.16667 17.4173 9.16667H4.58398C4.32426 9.16667 4.10655 9.25451 3.93086 9.43021C3.75517 9.6059 3.66732 9.82361 3.66732 10.0833V13.75H5.50065V11.9167H16.5007V13.75H18.334Z" fill="#28328B"/>
</g>
</g>
</svg>
