<svg width="40" height="40" viewBox="0 0 40 40" fill="none" xmlns="http://www.w3.org/2000/svg">
<mask id="mask0_689_1676" style="mask-type:alpha" maskUnits="userSpaceOnUse" x="8" y="8" width="24" height="24">
<rect x="8" y="8" width="24" height="24" fill="#D9D9D9"/>
</mask>
<g mask="url(#mask0_689_1676)">
<path d="M14 29.5002C13.3013 29.5002 12.71 29.2582 12.226 28.7742C11.742 28.2902 11.5 27.6989 11.5 27.0002V25.4042C11.5 25.1464 11.5863 24.9313 11.7588 24.759C11.9311 24.5865 12.1462 24.5002 12.404 24.5002H14.5V11.1867C14.5 11.0829 14.542 11.0134 14.626 10.9782C14.71 10.9429 14.7904 10.9573 14.8673 11.0215L15.602 11.631C15.6892 11.7053 15.7834 11.7425 15.8848 11.7425C15.9859 11.7425 16.0801 11.7053 16.1673 11.631L17.0058 10.9465C17.0929 10.8721 17.1872 10.835 17.2885 10.835C17.3898 10.835 17.4841 10.8721 17.5713 10.9465L18.4098 11.631C18.4969 11.7053 18.5911 11.7425 18.6923 11.7425C18.7936 11.7425 18.8878 11.7053 18.975 11.631L19.8135 10.9465C19.9007 10.8721 19.9949 10.835 20.0963 10.835C20.1974 10.835 20.2916 10.8721 20.3787 10.9465L21.2172 11.631C21.3044 11.7053 21.3987 11.7425 21.5 11.7425C21.6013 11.7425 21.6956 11.7053 21.7828 11.631L22.6212 10.9465C22.7084 10.8721 22.8026 10.835 22.9038 10.835C23.0051 10.835 23.0993 10.8721 23.1865 10.9465L24.025 11.631C24.1122 11.7053 24.2064 11.7425 24.3077 11.7425C24.4089 11.7425 24.5031 11.7053 24.5903 11.631L25.4288 10.9465C25.5159 10.8721 25.6102 10.835 25.7115 10.835C25.8128 10.835 25.9071 10.8721 25.9943 10.9465L26.8328 11.631C26.9199 11.7053 27.0141 11.7425 27.1152 11.7425C27.2166 11.7425 27.3108 11.7053 27.398 11.631L28.1327 11.0215C28.2096 10.9573 28.29 10.9429 28.374 10.9782C28.458 11.0134 28.5 11.0829 28.5 11.1867V27.0002C28.5 27.6989 28.258 28.2902 27.774 28.7742C27.29 29.2582 26.6987 29.5002 26 29.5002H14ZM26 28.0002C26.2833 28.0002 26.5208 27.9044 26.7125 27.7127C26.9042 27.521 27 27.2835 27 27.0002V13.0002H16V24.5002H24.0962C24.3539 24.5002 24.5689 24.5865 24.7413 24.759C24.9138 24.9313 25 25.1464 25 25.4042V27.0002C25 27.2835 25.0958 27.521 25.2875 27.7127C25.4792 27.9044 25.7167 28.0002 26 28.0002ZM17.9423 15.2502H22.1155C22.3282 15.2502 22.5063 15.322 22.65 15.4657C22.7935 15.6092 22.8652 15.7874 22.8652 16.0002C22.8652 16.213 22.7935 16.3912 22.65 16.5347C22.5063 16.6784 22.3282 16.7502 22.1155 16.7502H17.9423C17.7294 16.7502 17.5513 16.6784 17.4078 16.5347C17.2641 16.3912 17.1923 16.213 17.1923 16.0002C17.1923 15.7874 17.2641 15.6092 17.4078 15.4657C17.5513 15.322 17.7294 15.2502 17.9423 15.2502ZM17.9423 18.2502H22.1155C22.3282 18.2502 22.5063 18.322 22.65 18.4657C22.7935 18.6092 22.8652 18.7874 22.8652 19.0002C22.8652 19.213 22.7935 19.3912 22.65 19.5347C22.5063 19.6784 22.3282 19.7502 22.1155 19.7502H17.9423C17.7294 19.7502 17.5513 19.6784 17.4078 19.5347C17.2641 19.3912 17.1923 19.213 17.1923 19.0002C17.1923 18.7874 17.2641 18.6092 17.4078 18.4657C17.5513 18.322 17.7294 18.2502 17.9423 18.2502ZM24.9423 16.8847C24.6974 16.8847 24.4888 16.7985 24.3163 16.6262C24.1439 16.4537 24.0577 16.245 24.0577 16.0002C24.0577 15.7554 24.1439 15.5467 24.3163 15.3742C24.4888 15.2019 24.6974 15.1157 24.9423 15.1157C25.1871 15.1157 25.3957 15.2019 25.5682 15.3742C25.7407 15.5467 25.827 15.7554 25.827 16.0002C25.827 16.245 25.7407 16.4537 25.5682 16.6262C25.3957 16.7985 25.1871 16.8847 24.9423 16.8847ZM24.9423 19.8847C24.6974 19.8847 24.4888 19.7985 24.3163 19.6262C24.1439 19.4537 24.0577 19.245 24.0577 19.0002C24.0577 18.7554 24.1439 18.5467 24.3163 18.3742C24.4888 18.2019 24.6974 18.1157 24.9423 18.1157C25.1871 18.1157 25.3957 18.2019 25.5682 18.3742C25.7407 18.5467 25.827 18.7554 25.827 19.0002C25.827 19.245 25.7407 19.4537 25.5682 19.6262C25.3957 19.7985 25.1871 19.8847 24.9423 19.8847Z" fill="white"/>
</g>
</svg>
