<svg width="40" height="40" viewBox="0 0 40 40" fill="none" xmlns="http://www.w3.org/2000/svg">
<mask id="mask0_689_1646" style="mask-type:alpha" maskUnits="userSpaceOnUse" x="8" y="8" width="24" height="24">
<rect x="8" y="8" width="24" height="24" fill="#D9D9D9"/>
</mask>
<g mask="url(#mask0_689_1646)">
<path d="M19.25 20.7463L17.927 19.4578C17.782 19.3193 17.6089 19.2484 17.4078 19.2452C17.2064 19.2421 17.0282 19.318 16.873 19.473C16.7282 19.618 16.6558 19.7937 16.6558 20C16.6558 20.2063 16.7282 20.382 16.873 20.527L19.3672 23.0212C19.5481 23.2019 19.759 23.2923 20 23.2923C20.241 23.2923 20.4519 23.2019 20.6328 23.0212L23.127 20.527C23.2653 20.3885 23.3387 20.217 23.347 20.0125C23.3553 19.808 23.282 19.6282 23.127 19.473C22.9885 19.3347 22.817 19.2629 22.6125 19.2578C22.408 19.2526 22.2282 19.3193 22.073 19.4578L20.75 20.7463V17.0962C20.75 16.8834 20.6782 16.7052 20.5345 16.5615C20.391 16.418 20.2128 16.3462 20 16.3462C19.7872 16.3462 19.609 16.418 19.4655 16.5615C19.3218 16.7052 19.25 16.8834 19.25 17.0962V20.7463ZM13.3077 28.5C12.8091 28.5 12.3831 28.3234 12.0298 27.9703C11.6766 27.6169 11.5 27.1909 11.5 26.6923V13.3077C11.5 12.8091 11.6766 12.3831 12.0298 12.0298C12.3831 11.6766 12.8091 11.5 13.3077 11.5H17.7578C17.8206 10.9448 18.0629 10.4727 18.4848 10.0837C18.9064 9.69458 19.4115 9.5 20 9.5C20.5948 9.5 21.1032 9.69458 21.525 10.0837C21.9468 10.4727 22.1859 10.9448 22.2423 11.5H26.6923C27.1909 11.5 27.6169 11.6766 27.9703 12.0298C28.3234 12.3831 28.5 12.8091 28.5 13.3077V26.6923C28.5 27.1909 28.3234 27.6169 27.9703 27.9703C27.6169 28.3234 27.1909 28.5 26.6923 28.5H13.3077ZM13.3077 27H26.6923C26.7693 27 26.8398 26.9679 26.9038 26.9038C26.9679 26.8398 27 26.7693 27 26.6923V13.3077C27 13.2307 26.9679 13.1602 26.9038 13.0962C26.8398 13.0321 26.7693 13 26.6923 13H13.3077C13.2307 13 13.1603 13.0321 13.0963 13.0962C13.0321 13.1602 13 13.2307 13 13.3077V26.6923C13 26.7693 13.0321 26.8398 13.0963 26.9038C13.1603 26.9679 13.2307 27 13.3077 27ZM20 12.3462C20.2167 12.3462 20.3958 12.2754 20.5375 12.1337C20.6792 11.9921 20.75 11.8129 20.75 11.5962C20.75 11.3796 20.6792 11.2004 20.5375 11.0587C20.3958 10.9171 20.2167 10.8462 20 10.8462C19.7833 10.8462 19.6042 10.9171 19.4625 11.0587C19.3208 11.2004 19.25 11.3796 19.25 11.5962C19.25 11.8129 19.3208 11.9921 19.4625 12.1337C19.6042 12.2754 19.7833 12.3462 20 12.3462Z" fill="white"/>
</g>
</svg>
