<svg width="24" height="24" viewBox="0 0 24 24" fill="none" xmlns="http://www.w3.org/2000/svg">
<g id="assignment_returned">
<mask id="mask0_610_1875" style="mask-type:alpha" maskUnits="userSpaceOnUse" x="0" y="0" width="24" height="24">
<rect id="Bounding box" width="24" height="24" fill="#D9D9D9"/>
</mask>
<g mask="url(#mask0_610_1875)">
<path id="assignment_returned_2" d="M11.25 12.7463L9.927 11.4578C9.782 11.3193 9.60892 11.2484 9.40775 11.2452C9.20642 11.2421 9.0275 11.3188 8.871 11.4753C8.7275 11.6188 8.65575 11.7937 8.65575 12C8.65575 12.2063 8.72817 12.382 8.873 12.527L11.3672 15.0212C11.5481 15.2019 11.759 15.2923 12 15.2923C12.241 15.2923 12.4519 15.2019 12.6328 15.0212L15.127 12.527C15.2653 12.3885 15.3387 12.217 15.347 12.0125C15.3553 11.808 15.2829 11.6292 15.1298 11.476C14.9894 11.3357 14.817 11.2629 14.6125 11.2578C14.408 11.2526 14.2282 11.3193 14.073 11.4578L12.75 12.7463V9.09625C12.75 8.88375 12.6781 8.70558 12.5343 8.56175C12.3904 8.41808 12.2122 8.34625 11.9998 8.34625C11.7871 8.34625 11.609 8.41808 11.4655 8.56175C11.3218 8.70558 11.25 8.88375 11.25 9.09625V12.7463ZM5.30775 20.5C4.81058 20.5 4.385 20.323 4.031 19.969C3.677 19.615 3.5 19.1894 3.5 18.6923V5.30775C3.5 4.81058 3.677 4.385 4.031 4.031C4.385 3.677 4.81058 3.5 5.30775 3.5H9.75775C9.82058 2.94483 10.0629 2.47275 10.4848 2.08375C10.9064 1.69458 11.4131 1.5 12.0048 1.5C12.5964 1.5 13.1032 1.69458 13.525 2.08375C13.9468 2.47275 14.1859 2.94483 14.2423 3.5H18.6923C19.1894 3.5 19.615 3.677 19.969 4.031C20.323 4.385 20.5 4.81058 20.5 5.30775V18.6923C20.5 19.1894 20.323 19.615 19.969 19.969C19.615 20.323 19.1894 20.5 18.6923 20.5H5.30775ZM12 4.34625C12.2167 4.34625 12.3958 4.27542 12.5375 4.13375C12.6792 3.99208 12.75 3.81292 12.75 3.59625C12.75 3.37958 12.6792 3.20042 12.5375 3.05875C12.3958 2.91708 12.2167 2.84625 12 2.84625C11.7833 2.84625 11.6042 2.91708 11.4625 3.05875C11.3208 3.20042 11.25 3.37958 11.25 3.59625C11.25 3.81292 11.3208 3.99208 11.4625 4.13375C11.6042 4.27542 11.7833 4.34625 12 4.34625Z" fill="white"/>
</g>
</g>
</svg>
