<svg width="40" height="40" viewBox="0 0 40 40" fill="none" xmlns="http://www.w3.org/2000/svg">
<mask id="mask0_689_1697" style="mask-type:alpha" maskUnits="userSpaceOnUse" x="8" y="8" width="24" height="24">
<rect x="8" y="8" width="24" height="24" fill="#D9D9D9"/>
</mask>
<g mask="url(#mask0_689_1697)">
<path d="M19.25 20.7463L17.927 19.4578C17.782 19.3193 17.6089 19.2484 17.4078 19.2452C17.2064 19.2421 17.0275 19.3188 16.871 19.4753C16.7275 19.6188 16.6558 19.7937 16.6558 20C16.6558 20.2063 16.7282 20.382 16.873 20.527L19.3672 23.0212C19.5481 23.2019 19.759 23.2923 20 23.2923C20.241 23.2923 20.4519 23.2019 20.6328 23.0212L23.127 20.527C23.2653 20.3885 23.3387 20.217 23.347 20.0125C23.3553 19.808 23.2829 19.6292 23.1298 19.476C22.9894 19.3357 22.817 19.2629 22.6125 19.2578C22.408 19.2526 22.2282 19.3193 22.073 19.4578L20.75 20.7463V17.0962C20.75 16.8837 20.6781 16.7056 20.5343 16.5617C20.3904 16.4181 20.2123 16.3462 19.9998 16.3462C19.7871 16.3462 19.609 16.4181 19.4655 16.5617C19.3218 16.7056 19.25 16.8837 19.25 17.0962V20.7463ZM13.3077 28.5C12.8106 28.5 12.385 28.323 12.031 27.969C11.677 27.615 11.5 27.1894 11.5 26.6923V13.3077C11.5 12.8106 11.677 12.385 12.031 12.031C12.385 11.677 12.8106 11.5 13.3077 11.5H17.7578C17.8206 10.9448 18.0629 10.4727 18.4848 10.0837C18.9064 9.69458 19.4131 9.5 20.0048 9.5C20.5964 9.5 21.1032 9.69458 21.525 10.0837C21.9468 10.4727 22.1859 10.9448 22.2423 11.5H26.6923C27.1894 11.5 27.615 11.677 27.969 12.031C28.323 12.385 28.5 12.8106 28.5 13.3077V26.6923C28.5 27.1894 28.323 27.615 27.969 27.969C27.615 28.323 27.1894 28.5 26.6923 28.5H13.3077ZM20 12.3462C20.2167 12.3462 20.3958 12.2754 20.5375 12.1337C20.6792 11.9921 20.75 11.8129 20.75 11.5962C20.75 11.3796 20.6792 11.2004 20.5375 11.0587C20.3958 10.9171 20.2167 10.8462 20 10.8462C19.7833 10.8462 19.6042 10.9171 19.4625 11.0587C19.3208 11.2004 19.25 11.3796 19.25 11.5962C19.25 11.8129 19.3208 11.9921 19.4625 12.1337C19.6042 12.2754 19.7833 12.3462 20 12.3462Z" fill="white"/>
</g>
</svg>
