<svg width="40" height="40" viewBox="0 0 40 40" fill="none" xmlns="http://www.w3.org/2000/svg">
<mask id="mask0_689_1693" style="mask-type:alpha" maskUnits="userSpaceOnUse" x="8" y="8" width="24" height="24">
<rect x="8" y="8" width="24" height="24" fill="#D9D9D9"/>
</mask>
<g mask="url(#mask0_689_1693)">
<path d="M28.9578 22.202L22.202 28.9578C22.0203 29.1384 21.8159 29.274 21.5887 29.3645C21.3616 29.4548 21.1351 29.5 20.9093 29.5C20.6833 29.5 20.4572 29.4548 20.2312 29.3645C20.0052 29.274 19.8019 29.1384 19.6213 28.9578L11.027 20.373C10.8565 20.209 10.726 20.0165 10.6355 19.7955C10.5452 19.5745 10.5 19.342 10.5 19.098V12.3173C10.5 11.8176 10.6766 11.3897 11.0298 11.0337C11.3831 10.6779 11.8123 10.5 12.3173 10.5H19.098C19.3395 10.5 19.5734 10.549 19.7998 10.647C20.0263 10.7448 20.2225 10.8766 20.3885 11.0423L28.9578 19.627C29.1409 19.8087 29.2745 20.013 29.3585 20.24C29.4425 20.4672 29.4845 20.6949 29.4845 20.9233C29.4845 21.1516 29.4425 21.3761 29.3585 21.5968C29.2745 21.8176 29.1409 22.0193 28.9578 22.202ZM14.525 15.7788C14.8737 15.7788 15.1698 15.6573 15.4135 15.4143C15.657 15.1713 15.7787 14.8761 15.7787 14.5288C15.7787 14.1789 15.6573 13.8816 15.4143 13.6367C15.1713 13.3917 14.8761 13.2693 14.5287 13.2693C14.1789 13.2693 13.8816 13.3913 13.6367 13.6355C13.3917 13.8797 13.2693 14.1762 13.2693 14.525C13.2693 14.8737 13.3913 15.1698 13.6355 15.4135C13.8797 15.657 14.1762 15.7788 14.525 15.7788Z" fill="white"/>
</g>
</svg>
