<svg width="40" height="40" viewBox="0 0 40 40" fill="none" xmlns="http://www.w3.org/2000/svg">
<mask id="mask0_689_1666" style="mask-type:alpha" maskUnits="userSpaceOnUse" x="8" y="8" width="24" height="24">
<rect x="8" y="8" width="24" height="24" fill="#D9D9D9"/>
</mask>
<g mask="url(#mask0_689_1666)">
<path d="M18.8927 29.5C18.5517 29.5 18.2572 29.3868 18.0092 29.1605C17.7611 28.9343 17.6101 28.6558 17.5562 28.325L17.312 26.4538C17.0441 26.3641 16.7695 26.2385 16.488 26.077C16.2066 25.9153 15.9551 25.7422 15.7332 25.5577L14.0005 26.2943C13.6863 26.4328 13.3706 26.4462 13.0535 26.3345C12.7361 26.223 12.4896 26.0205 12.314 25.727L11.187 23.773C11.0113 23.4795 10.9607 23.1689 11.0352 22.8413C11.1096 22.5138 11.2801 22.2436 11.5467 22.0308L13.0447 20.9058C13.0217 20.7571 13.0054 20.6078 12.9957 20.4578C12.9861 20.3078 12.9812 20.1583 12.9812 20.0095C12.9812 19.8673 12.9861 19.7228 12.9957 19.576C13.0054 19.4292 13.0217 19.2686 13.0447 19.0943L11.5467 17.9693C11.2801 17.7564 11.1111 17.4846 11.04 17.1538C10.9688 16.8231 11.0211 16.5109 11.1967 16.2173L12.314 14.2923C12.4896 14.0051 12.7361 13.8042 13.0535 13.6895C13.3706 13.5747 13.6863 13.5865 14.0005 13.725L15.7235 14.452C15.9646 14.261 16.2221 14.0863 16.4957 13.928C16.7694 13.7697 17.0383 13.6424 17.3025 13.5462L17.5562 11.675C17.6101 11.3442 17.7611 11.0657 18.0092 10.8395C18.2572 10.6132 18.5517 10.5 18.8927 10.5H21.1082C21.4492 10.5 21.7437 10.6132 21.9917 10.8395C22.2399 11.0657 22.3909 11.3442 22.4447 11.675L22.689 13.5557C22.989 13.6647 23.2604 13.792 23.5032 13.9375C23.7462 14.083 23.9915 14.2545 24.239 14.452L26.0102 13.725C26.3242 13.5865 26.6399 13.5747 26.9572 13.6895C27.2746 13.8042 27.521 14.0051 27.6965 14.2923L28.814 16.227C28.9896 16.5205 29.0402 16.8311 28.9657 17.1587C28.8914 17.4862 28.7209 17.7564 28.4542 17.9693L26.9177 19.123C26.9536 19.2845 26.9731 19.4355 26.9765 19.576C26.9796 19.7163 26.9812 19.8577 26.9812 20C26.9812 20.1358 26.978 20.274 26.9715 20.4145C26.9651 20.5548 26.9421 20.7154 26.9025 20.8963L28.41 22.0308C28.6766 22.2436 28.8488 22.5138 28.9265 22.8413C29.004 23.1689 28.9549 23.4795 28.7792 23.773L27.6465 25.7172C27.471 26.0109 27.223 26.2135 26.9025 26.325C26.582 26.4365 26.2646 26.423 25.9505 26.2845L24.239 25.548C23.9915 25.7455 23.7389 25.9202 23.4812 26.072C23.2236 26.224 22.9595 26.3481 22.689 26.4443L22.4447 28.325C22.3909 28.6558 22.2399 28.9343 21.9917 29.1605C21.7437 29.3868 21.4492 29.5 21.1082 29.5H18.8927ZM19.0005 28H20.966L21.3255 25.3212C21.8358 25.1879 22.3021 24.9985 22.7245 24.753C23.147 24.5073 23.5544 24.1916 23.9467 23.8057L26.4312 24.85L27.416 23.15L25.2467 21.5155C25.3301 21.2565 25.3867 21.0026 25.4167 20.7537C25.4469 20.5051 25.462 20.2538 25.462 20C25.462 19.7397 25.4469 19.4884 25.4167 19.2463C25.3867 19.0039 25.3301 18.7564 25.2467 18.5038L27.435 16.85L26.4505 15.15L23.937 16.2095C23.6023 15.8518 23.2014 15.5358 22.7342 15.2615C22.2669 14.9872 21.7941 14.7929 21.316 14.6788L21.0005 12H19.016L18.685 14.6693C18.1748 14.7898 17.7037 14.9743 17.2717 15.223C16.8396 15.4718 16.4273 15.7923 16.035 16.1845L13.5505 15.15L12.566 16.85L14.7255 18.4595C14.6421 18.6968 14.5838 18.9437 14.5505 19.2C14.5171 19.4563 14.5005 19.7262 14.5005 20.0095C14.5005 20.2698 14.5171 20.525 14.5505 20.775C14.5838 21.025 14.639 21.2718 14.716 21.5155L12.566 23.15L13.5505 24.85L16.0255 23.8C16.405 24.1897 16.8107 24.5089 17.2427 24.7578C17.6749 25.0064 18.1525 25.1974 18.6755 25.3307L19.0005 28ZM20.012 23C20.844 23 21.552 22.708 22.136 22.124C22.72 21.54 23.012 20.832 23.012 20C23.012 19.168 22.72 18.46 22.136 17.876C21.552 17.292 20.844 17 20.012 17C19.1696 17 18.4591 17.292 17.8802 17.876C17.3014 18.46 17.012 19.168 17.012 20C17.012 20.832 17.3014 21.54 17.8802 22.124C18.4591 22.708 19.1696 23 20.012 23Z" fill="white"/>
</g>
</svg>
