<svg width="40" height="40" viewBox="0 0 40 40" fill="none" xmlns="http://www.w3.org/2000/svg">
<mask id="mask0_689_1685" style="mask-type:alpha" maskUnits="userSpaceOnUse" x="8" y="8" width="24" height="24">
<rect x="8" y="8" width="24" height="24" fill="#D9D9D9"/>
</mask>
<g mask="url(#mask0_689_1685)">
<path d="M20 29.9328C19.8025 29.9328 19.6134 29.9026 19.4328 29.8423C19.2519 29.7821 19.0795 29.6917 18.9155 29.571L13.223 25.302C12.9987 25.1378 12.8221 24.9269 12.6932 24.6693C12.5644 24.4116 12.5 24.1404 12.5 23.8558V12.3077C12.5 11.8026 12.675 11.375 13.025 11.025C13.375 10.675 13.8026 10.5 14.3077 10.5H25.6923C26.1974 10.5 26.625 10.675 26.975 11.025C27.325 11.375 27.5 11.8026 27.5 12.3077V23.8558C27.5 24.1404 27.4356 24.4116 27.3068 24.6693C27.1779 24.9269 27.0013 25.1378 26.777 25.302L21.0845 29.571C20.9205 29.6917 20.7481 29.7821 20.5673 29.8423C20.3866 29.9026 20.1975 29.9328 20 29.9328ZM18.95 20.5155L17.3577 18.923C17.2089 18.7743 17.0348 18.701 16.8355 18.703C16.6362 18.7048 16.4589 18.7782 16.3037 18.923C16.1487 19.0782 16.0687 19.2564 16.0635 19.4578C16.0583 19.6589 16.1333 19.8371 16.2885 19.9923L18.3173 22.0213C18.4981 22.2019 18.709 22.2923 18.95 22.2923C19.191 22.2923 19.4019 22.2019 19.5827 22.0213L23.727 17.877C23.8757 17.7282 23.949 17.5541 23.947 17.3548C23.9452 17.1554 23.8718 16.9782 23.727 16.823C23.5718 16.668 23.3936 16.5879 23.1923 16.5827C22.9911 16.5776 22.8129 16.6526 22.6578 16.8078L18.95 20.5155Z" fill="white"/>
</g>
</svg>
