<svg width="40" height="40" viewBox="0 0 40 40" fill="none" xmlns="http://www.w3.org/2000/svg">
<mask id="mask0_689_1650" style="mask-type:alpha" maskUnits="userSpaceOnUse" x="8" y="8" width="24" height="24">
<rect x="8" y="8" width="24" height="24" fill="#D9D9D9"/>
</mask>
<g mask="url(#mask0_689_1650)">
<path d="M12.9618 12.25H27.0388C27.2513 12.25 27.4293 12.3219 27.573 12.4658C27.7168 12.6096 27.7888 12.7878 27.7888 13.0003C27.7888 13.2129 27.7168 13.391 27.573 13.5345C27.4293 13.6782 27.2513 13.75 27.0388 13.75H12.9618C12.7493 13.75 12.5712 13.6781 12.4275 13.5342C12.2837 13.3904 12.2118 13.2122 12.2118 12.9997C12.2118 12.7871 12.2837 12.609 12.4275 12.4655C12.5712 12.3218 12.7493 12.25 12.9618 12.25ZM13.154 27.75C12.898 27.75 12.6833 27.6634 12.51 27.4902C12.3368 27.3169 12.2503 27.1022 12.2503 26.8462V21.75H11.9408C11.6561 21.75 11.4218 21.6388 11.2378 21.4163C11.0538 21.1939 10.9951 20.9404 11.0618 20.6558L12.0618 15.9635C12.1074 15.7553 12.2138 15.5844 12.3808 15.4508C12.5478 15.3169 12.7376 15.25 12.9503 15.25H27.0503C27.2629 15.25 27.4528 15.3169 27.6198 15.4508C27.7868 15.5844 27.8931 15.7553 27.9388 15.9635L28.9388 20.6558C29.0054 20.9404 28.9468 21.1939 28.7628 21.4163C28.5788 21.6388 28.3444 21.75 28.0598 21.75H27.7503V27C27.7503 27.2125 27.6783 27.3906 27.5345 27.5343C27.3907 27.6781 27.2125 27.75 27 27.75C26.7873 27.75 26.6093 27.6781 26.4658 27.5343C26.3221 27.3906 26.2503 27.2125 26.2503 27V21.75H21.7503V26.8462C21.7503 27.1022 21.6637 27.3169 21.4905 27.4902C21.3172 27.6634 21.1025 27.75 20.8465 27.75H13.154ZM13.7503 26.25H20.2503V21.75H13.7503V26.25ZM12.6655 20.25H27.335L26.5715 16.75H13.429L12.6655 20.25Z" fill="white"/>
</g>
</svg>
